<svg width="108" height="43" viewBox="0 0 108 43" fill="none" xmlns="http://www.w3.org/2000/svg">
<path d="M2.23242 34H6.76758V25.6152H12.0059C17.1387 25.6152 20.6367 22.2051 20.6367 17.1426V17.1074C20.6367 12.0273 17.1387 8.63477 12.0059 8.63477H2.23242V34ZM10.8809 12.3438C14.1328 12.3438 16.0312 14.084 16.0312 17.125V17.1602C16.0312 20.2012 14.1328 21.959 10.8809 21.959H6.76758V12.3438H10.8809ZM23.5195 34H27.8965V23.1895C27.8965 20.4297 29.3906 18.8652 31.8691 18.8652C32.6074 18.8652 33.2754 18.9707 33.6445 19.1113V15.1562C33.3105 15.0684 32.8008 14.9805 32.2559 14.9805C30.1113 14.9805 28.5645 16.334 27.9844 18.584H27.8965V15.3672H23.5195V34ZM43.3828 34.3691C48.252 34.3691 50.9941 31.4863 51.5742 28.6211L51.627 28.4277H47.5312L47.4961 28.5508C47.0742 29.7988 45.6504 30.959 43.4707 30.959C40.623 30.959 38.8301 29.0254 38.7598 25.7559H51.8027V24.3496C51.8027 18.7246 48.498 14.9805 43.1719 14.9805C37.8457 14.9805 34.418 18.8477 34.418 24.7188V24.7363C34.418 30.6602 37.793 34.3691 43.3828 34.3691ZM43.2246 18.4082C45.5449 18.4082 47.2324 19.8848 47.5488 22.8379H38.8125C39.1641 19.9727 40.9043 18.4082 43.2246 18.4082ZM61.9102 34.3691C66.4805 34.3691 69.7324 32.0137 69.7324 28.498V28.4805C69.7324 25.7734 68.2383 24.2617 64.3887 23.4004L61.2773 22.7148C59.3438 22.2754 58.623 21.5723 58.623 20.5V20.4824C58.623 19.1113 59.8359 18.2148 61.7695 18.2148C63.8086 18.2148 65.0039 19.3047 65.1973 20.7988L65.2148 20.9395H69.293L69.2754 20.7461C69.1172 17.5293 66.4102 14.9805 61.7695 14.9805C57.2695 14.9805 54.2988 17.2832 54.2988 20.6934V20.7109C54.2988 23.4707 56.0918 25.2109 59.6602 26.002L62.7539 26.6875C64.6875 27.127 65.3379 27.7598 65.3379 28.8848V28.9023C65.3379 30.2734 64.0547 31.1348 61.9277 31.1348C59.7129 31.1348 58.5 30.1855 58.166 28.5859L58.1309 28.4277H53.8242L53.8418 28.5859C54.2285 32.0488 57.0234 34.3691 61.9102 34.3691ZM79.8047 34.3691C84.375 34.3691 87.627 32.0137 87.627 28.498V28.4805C87.627 25.7734 86.1328 24.2617 82.2832 23.4004L79.1719 22.7148C77.2383 22.2754 76.5176 21.5723 76.5176 20.5V20.4824C76.5176 19.1113 77.7305 18.2148 79.6641 18.2148C81.7031 18.2148 82.8984 19.3047 83.0918 20.7988L83.1094 20.9395H87.1875L87.1699 20.7461C87.0117 17.5293 84.3047 14.9805 79.6641 14.9805C75.1641 14.9805 72.1934 17.2832 72.1934 20.6934V20.7109C72.1934 23.4707 73.9863 25.2109 77.5547 26.002L80.6484 26.6875C82.582 27.127 83.2324 27.7598 83.2324 28.8848V28.9023C83.2324 30.2734 81.9492 31.1348 79.8223 31.1348C77.6074 31.1348 76.3945 30.1855 76.0605 28.5859L76.0254 28.4277H71.7188L71.7363 28.5859C72.123 32.0488 74.918 34.3691 79.8047 34.3691ZM95.9238 34.3164C98.3848 34.3164 100.459 33.0859 101.531 31.1348H101.637V34H106.014V21.1855C106.014 17.4414 103.008 14.9805 98.3496 14.9805C93.6211 14.9805 90.7559 17.459 90.4922 20.7637L90.4746 20.9746H94.5352L94.5703 20.8164C94.8516 19.4453 96.1172 18.4785 98.1914 18.4785C100.406 18.4785 101.637 19.6211 101.637 21.502V22.7852L96.7676 23.084C92.25 23.3652 89.6836 25.3516 89.6836 28.6562V28.6914C89.6836 32.0137 92.1973 34.3164 95.9238 34.3164ZM94.043 28.5156V28.498C94.043 27.0215 95.2207 26.0898 97.3828 25.9492L101.637 25.6855V27.0918C101.637 29.3066 99.7383 30.9766 97.2246 30.9766C95.3086 30.9766 94.043 30.0449 94.043 28.5156Z" fill="white"/>
</svg>
